<svg width="1024" height="1024" viewBox="0 0 1024 1024" fill="none" xmlns="http://www.w3.org/2000/svg" role="img" aria-labelledby="title desc">
  <title id="title">JUST Construtora</title>
  <desc id="desc">Logotipo JUST Construtora em azul marinho sobre fundo claro.</desc>
  <rect width="1024" height="1024" fill="#F7F7F7"/>

  <g fill="#07183D">
    <path d="M154 545H220C237 545 253 543 268 538C265 566 254 589 235 604H121L154 545Z"/>
    <path d="M288 394L340 360V518C340 565 323 596 288 612C298 587 302 560 302 520V430L288 439V394Z"/>
    <path d="M363 453L407 435V515C407 550 433 562 491 562C548 562 574 550 574 515V453L618 435V519C618 580 576 604 491 604C405 604 363 580 363 519V453Z"/>
  </g>

  <g fill="#07183D">
    <path d="M673 435H786L754 479H671C654 479 647 484 647 496C647 507 654 512 671 512H724C771 512 795 529 795 561C795 589 775 604 735 604H619L651 560H735C751 560 758 555 758 544C758 533 751 528 735 528H681C634 528 611 511 611 479C611 451 632 435 673 435Z"/>
    <path d="M817 435H934L902 479H855V604H809V479H785L817 435Z"/>
  </g>

  <text x="412" y="673" fill="#07183D" font-family="Arial, Helvetica, sans-serif" font-size="48" font-weight="400" letter-spacing="9">CONSTRUTORA</text>
</svg>
